# xmcd
#
# Track frame offsets:
# 150
# 5183
# 12923
# 24133
# 34337
# 41446
# 52854
# 59151
# 67670
# 82017
# 93301
# 110746
# 126950
# 139180
# 147955
#
# Disc length: 2128 seconds
#
#
# Revision: 0
# Processed by: cddbd v1.5.2PL0 Copyright (c) Steve Scherf et al.
# Submitted via: FreeRIP 2.945 
#
DISCID=cc084e0f
DTITLE=Johnny Cash -  I walk the line Disc 2
DYEAR=2006
DGENRE=Country
TTITLE0=( Come along) and ride this train
TTITLE1=Five feet high and rising
TTITLE2=Hey Porter
TTITLE3=Wreck of the old '97
TTITLE4=Pickin times
TTITLE5=These hands
TTITLE6=No setting sun
TTITLE7=Busted
TTITLE8=Tennessee set top box
TTITLE9=Ragged Old Flag
TTITLE10=Ballad of Ira Hayes
TTITLE11=( Ghost) riders in the sky
TTITLE12=Far side banks of Jordan
TTITLE13=Gospel Boogie ( a wonderful time up there)
TTITLE14=Oh Come Angel Band
EXTD=
EXTT0=
EXTT1=
EXTT2=
EXTT3=
EXTT4=
EXTT5=
EXTT6=
EXTT7=
EXTT8=
EXTT9=
EXTT10=
EXTT11=
EXTT12=
EXTT13=
EXTT14=
PLAYORDER=
